<?xml version="1.0" encoding="UTF-8" standalone="no"?>
<svg
   aria-hidden="true"
   focusable="false"
   data-prefix="fab"
   data-icon="hive"
   role="img"
   viewBox="0 0 512 512"
   full-width=""
   class="icon__icon svg-inline--fa fa-hive fa-w-16"
   style="height:40px"
   version="1.1"
   id="svg191"
   xmlns="http://www.w3.org/2000/svg"
   xmlns:svg="http://www.w3.org/2000/svg"
   xmlns:rdf="http://www.w3.org/1999/02/22-rdf-syntax-ns#"
   xmlns:cc="http://creativecommons.org/ns#"
   xmlns:dc="http://purl.org/dc/elements/1.1/">
  <title
     id="title957">hivepen isotype</title>
  <defs
     id="defs195" />
  <circle
     style="display:none;fill:#333333;fill-opacity:1;stroke-width:16;stroke-linecap:round;stroke-linejoin:round"
     id="path5691"
     cx="256"
     cy="256"
     r="250.10138" />
  <path
     style="display:none;fill:#ffffff;fill-opacity:1;stroke-width:16;stroke-linecap:round;stroke-linejoin:round"
     id="path5802"
     d="m 355.37437,437.99516 -205.8271,-10e-6 L 46.633728,259.74364 149.54729,81.492148 l 205.8271,1e-5 102.91354,178.251502 z"
     transform="matrix(1.2136865,0,0,1.2136865,-50.40832,-59.247382)" />
  <rect
     style="display:none;fill:#ffffff;fill-opacity:1;stroke-width:16.3764;stroke-linecap:round;stroke-linejoin:round"
     id="rect1011"
     width="511.97031"
     height="511.97031"
     x="0.014840544"
     y="0.014840544"
     ry="0" />
  <g
     id="g5637"
     transform="matrix(1.0490894,0.60569206,-0.60569206,1.0490894,144.23874,-167.15556)">
    <path
       style="fill:#ff4c4c;fill-opacity:1;stroke-width:20;stroke-linecap:round;stroke-linejoin:round"
       d="m 96.667011,274.98196 c -22.829025,0.0229 -45.096905,3.85526 -66.05749,11.00421 l 66.156565,38.19445 66.246424,-38.24514 c -21.05157,-7.16472 -43.42119,-10.97657 -66.345499,-10.95352 z"
       transform="matrix(0.84768728,0,0,0.84768728,173.97262,166.90129)"
       id="path415" />
    <path
       style="fill:#ffb44c;fill-opacity:1;stroke-width:20;stroke-linecap:round;stroke-linejoin:round"
       d="m -92.957384,118.72962 v 95.91584 L 4.5528715,270.94294 C 33.123091,258.33765 64.375348,251.42075 96.64397,251.38835 c 32.37983,-0.0325 63.74767,6.87256 92.42288,19.5039 l 97.42271,-56.24679 v -95.91584 l -88.96449,51.36217 a 11.797983,11.797983 0 0 1 -11.7968,0 L 96.766086,118.72962 7.8039046,170.09179 a 11.797983,11.797983 0 0 1 -11.7968032,0 z"
       transform="matrix(0.84768728,0,0,0.84768728,173.97262,166.90129)"
       id="path413" />
    <path
       style="fill:#ff4c4c;fill-opacity:1;stroke-width:20;stroke-linecap:round;stroke-linejoin:round"
       d="M 108.56289,-107.15382 V 98.297184 l 83.06378,47.956766 88.96448,-51.362171 5.89841,-3.405406 V -4.4294703 Z"
       transform="matrix(0.84768728,0,0,0.84768728,173.97262,166.90129)"
       id="path411" />
    <path
       style="fill:#ff4c4c;fill-opacity:1;stroke-width:20;stroke-linecap:round;stroke-linejoin:round"
       d="M 84.969283,-107.15382 -92.957384,-4.4294703 V 91.486373 l 5.898402,3.405406 88.964485,51.362171 83.06378,-47.956766 z"
       transform="matrix(0.84768728,0,0,0.84768728,173.97262,166.90129)"
       id="path10215" />
  </g>
  <metadata
     id="metadata955">
    <rdf:RDF>
      <cc:Work
         rdf:about="">
        <dc:title>hivepen isotype</dc:title>
        <dc:date>2024-12</dc:date>
        <dc:creator>
          <cc:Agent>
            <dc:title>carlosepc</dc:title>
          </cc:Agent>
        </dc:creator>
        <dc:rights>
          <cc:Agent>
            <dc:title>All rights reserved</dc:title>
          </cc:Agent>
        </dc:rights>
        <dc:publisher>
          <cc:Agent>
            <dc:title>carlosepc</dc:title>
          </cc:Agent>
        </dc:publisher>
        <dc:identifier>hivepen-logo</dc:identifier>
        <dc:subject>
          <rdf:Bag>
            <rdf:li>hivepen hive hivetool</rdf:li>
          </rdf:Bag>
        </dc:subject>
        <dc:description>Hivepen logo, a tool for writers, specially Hive bloggers</dc:description>
      </cc:Work>
    </rdf:RDF>
  </metadata>
</svg>
